<svg width="363.1" height="482.74" version="1.1" viewBox="0 0 363.1 482.74" xmlns="http://www.w3.org/2000/svg" xmlns:xlink="http://www.w3.org/1999/xlink">
 <g transform="matrix(1.3333 0 0 -1.3333 -258.45 559.06)">
  <path d="m254.69 219.58c0-6.1623 0.93072-11.747 2.7955-16.757 1.8581-5.0031 4.526-9.3073 7.9935-12.906 3.4608-3.5952 7.6038-6.3841 12.419-8.3766 4.8149-1.9925 10.178-2.9837 16.078-2.9837 8.6051 0 16.595 1.1222 23.981 3.3735 7.3787 2.2378 14.28 5.4164 20.705 9.5324l-64.516 68.367c-7.0628-5.7793-12.073-12.073-15.026-18.877-2.9568-6.8041-4.4285-13.931-4.4285-21.373m58.166 199.71c12.449 0 23.426-1.8312 32.928-5.4903 9.5022-3.6557 17.526-8.474 24.071-14.448 6.5521-5.9641 11.686-12.869 15.409-20.701 3.7263-7.8289 6.0346-15.856 6.9351-24.071l-38.52-7.7046c-0.64177-0.13104-1.1895-0.22848-1.6364-0.28896-0.45025-0.0638-0.93409-0.0941-1.4448-0.0941-5.3962 0-9.3711 2.8191-11.938 8.4706-2.9568 6.673-6.3908 11.75-10.305 15.218-3.9178 3.4676-9.0856 5.2013-15.5 5.2013-4.4957 0-8.4135-0.84001-11.75-2.5066-3.3399-1.6699-6.1354-3.854-8.3799-6.5487-2.2479-2.6914-3.9447-5.8431-5.1005-9.4384-1.1592-3.5919-1.7338-7.3182-1.7338-11.172 0-3.3399 0.28897-6.5454 0.86354-9.6232 0.58128-3.0845 1.5423-6.1993 2.8896-9.3409 1.3507-3.1517 3.2088-6.3908 5.5844-9.7273 2.3722-3.3432 5.4265-6.9351 9.1494-10.789l69.331-73.182c3.4676 7.7046 6.2262 15.725 8.2859 24.078 2.0463 8.3463 3.528 17.012 4.4252 26 0.25537 3.5852 1.4448 6.4177 3.5616 8.4707 2.1202 2.053 4.9158 3.0845 8.3799 3.0845h37.747c0-18.749-2.5032-36.241-7.5097-52.484-5.0064-16.242-12.136-31.104-21.377-44.584l58.932-62.013h-58.932c-2.9568 0-5.5878 0.158-7.8961 0.48049-2.3151 0.32592-4.4655 0.87025-6.4546 1.6397-1.9925 0.77281-3.8808 1.8581-5.6785 3.276-1.801 1.4079-3.7263 3.2021-5.7793 5.3862l-12.133 12.714c-12.2-8.4707-25.52-15.023-39.964-19.643-14.445-4.6268-29.82-6.9318-46.123-6.9318-11.172 0-22.119 1.9253-32.838 5.7793-10.719 3.8506-20.251 9.3342-28.597 16.457-8.3463 7.1334-15.087 15.762-20.221 25.909-5.1375 10.141-7.7046 21.504-7.7046 34.084 0 8.474 1.3138 16.501 3.948 24.075 2.6309 7.5769 6.3236 14.609 11.075 21.088 4.7444 6.4882 10.43 12.392 17.045 17.721 6.6092 5.3257 13.833 9.9827 21.666 13.961-6.038 9.3711-10.403 18.551-13.101 27.539-2.6914 8.9881-4.0421 17.721-4.0421 26.192 0 10.013 1.8312 19.482 5.487 28.409 3.6624 8.9243 8.9881 16.753 15.987 23.497 6.9956 6.7402 15.601 12.096 25.808 16.081 10.204 3.9783 21.921 5.9708 35.149 5.9708"/>
  <path d="m193.83 57.235h272.32v41.21h-272.32z"/>
  <g transform="matrix(.1 0 0 .1 673.69 -79.251)"></g>
 </g>
</svg>
